<svg width="73" height="56" viewBox="0 0 73 56" fill="none" xmlns="http://www.w3.org/2000/svg">
<path d="M49.199 48.0444C51.3103 47.0154 53.0696 46.1624 54.8831 45.2959C54.2606 43.6982 53.3403 44.2263 52.3388 44.4971C48.1028 45.6073 43.9074 46.9477 39.5902 47.584C33.0535 48.5453 26.7604 47.0695 20.6703 44.646C19.6688 44.2534 18.6538 43.6171 17.7741 45.1876C19.5064 46.0541 21.2116 46.9071 23.377 48.0037C22.2131 49.7909 21.144 51.5646 19.926 53.23C19.6959 53.5414 18.8162 53.6226 18.3425 53.4872C12.8479 51.7948 7.78633 49.2088 3.15786 45.8239C2.64358 45.4448 2.19697 44.6325 2.14284 43.9826C1.10075 31.6483 3.36088 20.0316 10.3713 9.66044C13.9577 4.35302 19.7094 2.7283 25.7048 1.95656C26.1649 1.9024 27.004 2.85016 27.2476 3.48651C27.816 4.9623 28.6551 5.26016 30.1979 5.17893C34.0956 5.00291 38.0068 5.04352 41.9044 5.16537C43.2984 5.20599 44.2864 5.13825 44.6653 3.59476C45.2202 1.36078 46.8307 1.91593 48.4141 2.20026C55.0185 3.37818 60.7025 6.11312 63.6799 12.436C65.8588 17.0664 67.713 21.8864 69.2016 26.7741C70.8933 32.3387 70.8527 38.1606 70.4197 43.9419C70.3655 44.6324 69.8648 45.499 69.2963 45.9187C64.7085 49.2494 59.7146 51.8354 54.2741 53.4601C53.7599 53.6091 52.799 53.3248 52.4741 52.905C51.3644 51.4428 50.4035 49.8451 49.199 48.0444ZM47.5344 37.0369C51.3238 36.9828 54.3147 34.0176 54.2335 30.4026C54.1523 26.7064 51.0667 23.6736 47.4938 23.7819C43.9751 23.8903 40.9571 26.9772 40.9706 30.4704C40.9842 34.0312 44.0427 37.0911 47.5344 37.0369ZM31.4159 30.3485C31.3753 26.8012 28.3574 23.7819 24.8386 23.7684C21.3064 23.7549 18.1125 27.0043 18.1937 30.5381C18.2749 34.0583 21.2116 37.0234 24.6086 37.0369C28.5333 37.0369 31.4565 34.1666 31.4159 30.3485Z" fill="#7F3F2E"/>
<path d="M49.199 48.0444C51.3103 47.0154 53.0696 46.1624 54.8831 45.2959C54.2606 43.6982 53.3403 44.2263 52.3388 44.4971C48.1028 45.6073 43.9074 46.9477 39.5902 47.584C33.0535 48.5453 26.7604 47.0695 20.6703 44.646C19.6688 44.2534 18.6538 43.6171 17.7741 45.1876C19.5064 46.0541 21.2116 46.9071 23.377 48.0037C22.2131 49.7909 21.144 51.5646 19.926 53.23C19.6959 53.5414 18.8162 53.6226 18.3425 53.4872C12.8479 51.7948 7.78633 49.2088 3.15786 45.8239C2.64358 45.4448 2.19697 44.6325 2.14284 43.9826C1.10075 31.6483 3.36088 20.0316 10.3713 9.66044C13.9577 4.35302 19.7094 2.7283 25.7048 1.95656C26.1649 1.9024 27.004 2.85016 27.2476 3.48651C27.816 4.9623 28.6551 5.26016 30.1979 5.17893C34.0956 5.00291 38.0068 5.04352 41.9044 5.16537C43.2984 5.20599 44.2864 5.13825 44.6653 3.59476C45.2202 1.36078 46.8307 1.91593 48.4141 2.20026C55.0185 3.37818 60.7025 6.11312 63.6799 12.436C65.8588 17.0664 67.713 21.8864 69.2016 26.7741C70.8933 32.3387 70.8527 38.1606 70.4197 43.9419C70.3655 44.6324 69.8648 45.499 69.2963 45.9187C64.7085 49.2494 59.7146 51.8354 54.2741 53.4601C53.7599 53.6091 52.799 53.3248 52.4741 52.905C51.3644 51.4428 50.4035 49.8451 49.199 48.0444ZM47.5344 37.0369C51.3238 36.9828 54.3147 34.0176 54.2335 30.4026C54.1523 26.7064 51.0667 23.6736 47.4938 23.7819C43.9751 23.8903 40.9571 26.9772 40.9706 30.4704C40.9842 34.0312 44.0427 37.0911 47.5344 37.0369ZM31.4159 30.3485C31.3753 26.8012 28.3574 23.7819 24.8386 23.7684C21.3064 23.7549 18.1125 27.0043 18.1937 30.5381C18.2749 34.0583 21.2116 37.0234 24.6086 37.0369C28.5333 37.0369 31.4565 34.1666 31.4159 30.3485Z" fill="url(#paint0_linear_293_540)"/>
<path d="M47.0331 4.44774C47.1819 4.47482 47.3579 4.50191 47.5203 4.54253C47.6827 4.56961 47.8451 4.61024 48.0075 4.63731C54.9231 5.86939 59.1997 8.68553 61.4598 13.4785C63.5981 18.0141 65.4116 22.7258 66.8597 27.4782C68.5108 32.8939 68.3484 38.7023 67.983 43.6712C67.9559 43.7389 67.8883 43.8472 67.8477 43.9014C63.5305 47.0425 58.9155 49.3848 54.1246 50.8876C53.6916 50.319 53.2856 49.7097 52.8525 49.0463L55.9787 47.5299L58.0494 46.528L57.2103 44.3888C56.3035 42.0465 54.5983 41.6944 53.6645 41.6944C53.0014 41.6944 52.46 41.8569 52.0134 41.9923C51.9187 42.0193 51.8239 42.0465 51.7157 42.0736C50.633 42.3579 49.5367 42.6557 48.4811 42.9536C45.3007 43.8336 42.3098 44.6596 39.2377 45.1199C38.0197 45.2959 36.7611 45.3907 35.5024 45.3907C31.2664 45.3907 26.8545 44.4158 21.6035 42.3308C21.5223 42.3037 21.4411 42.2631 21.3599 42.236C20.8186 42.0059 20.0607 41.6944 19.1539 41.6944C18.3013 41.6944 16.7179 41.9923 15.6081 43.9961L14.3495 46.2707L16.6638 47.4351L19.79 49.0057C19.3705 49.6691 18.9509 50.3055 18.5178 50.9283C13.6187 49.3577 8.9767 46.9747 4.7001 43.8607C4.67303 43.8201 4.64594 43.766 4.6324 43.7253C3.57679 31.0796 6.13465 20.3971 12.4413 11.0549C15.4051 6.6682 20.169 5.27367 25.0004 4.55608C25.8666 6.65468 27.45 7.67011 29.8184 7.67011C29.9808 7.67011 30.1432 7.6701 30.3191 7.65656C32.0649 7.57532 33.8649 7.53475 35.8137 7.53475C37.6814 7.53475 39.6437 7.57531 41.8362 7.643C42.0257 7.643 42.2151 7.65656 42.391 7.65656C44.8406 7.64302 46.397 6.57342 47.0331 4.44774ZM47.4391 39.5282C47.4797 39.5282 47.5338 39.5282 47.5744 39.5282C50.1458 39.4876 52.5006 38.4721 54.2464 36.6713C55.8975 34.9518 56.7772 32.7043 56.7231 30.3485C56.6148 25.3525 52.5548 21.2771 47.6691 21.2771C47.5879 21.2771 47.5067 21.2771 47.412 21.2771C42.5399 21.426 38.4528 25.6233 38.4798 30.4704C38.4934 35.3851 42.594 39.5282 47.4391 39.5282ZM24.6215 39.5282C27.2199 39.5282 29.6154 38.5669 31.3341 36.8203C33.0123 35.1144 33.9326 32.8126 33.9055 30.3349C33.8514 25.4472 29.7101 21.3042 24.8515 21.2907H24.8245C22.4832 21.2907 20.1283 22.3197 18.3825 24.1069C16.6367 25.8941 15.6623 28.2634 15.7164 30.6057C15.8247 35.4393 19.8983 39.5281 24.608 39.5417H24.6215M46.5729 1.90234C45.7203 1.90234 45.0301 2.24088 44.6917 3.56774C44.3534 4.93521 43.5414 5.15182 42.4046 5.15182C42.2557 5.15182 42.0933 5.1518 41.9309 5.13826C39.9009 5.07057 37.8573 5.02992 35.8273 5.02992C33.9597 5.02992 32.092 5.07058 30.2244 5.15182C30.089 5.15182 29.9672 5.16537 29.8319 5.16537C28.5327 5.16537 27.7748 4.79979 27.2605 3.4594C27.0169 2.83659 26.2185 1.92945 25.7583 1.92945C25.7448 1.92945 25.7312 1.92945 25.7177 1.92945C19.7223 2.70119 13.9706 4.33945 10.3842 9.63333C3.37378 20.0045 1.1137 31.6212 2.15578 43.9555C2.20991 44.6054 2.64299 45.4178 3.1708 45.7969C7.79927 49.1953 12.8608 51.7812 18.3555 53.4601C18.5043 53.5007 18.6938 53.5278 18.8968 53.5278C19.3299 53.5278 19.7765 53.4195 19.9389 53.2029C21.1569 51.5375 22.2261 49.7774 23.3899 47.9767C21.211 46.88 19.5193 46.0406 17.787 45.1605C18.2066 44.3888 18.6803 44.1451 19.1539 44.1451C19.6547 44.1451 20.169 44.4158 20.6832 44.6189C25.4876 46.5279 30.4274 47.8548 35.5024 47.8548C36.8558 47.8548 38.2227 47.7601 39.6031 47.557C43.9068 46.9206 48.1157 45.5667 52.3517 44.47C52.8119 44.3481 53.2585 44.1722 53.6645 44.1722C54.1382 44.1722 54.5577 44.4159 54.8961 45.2688C53.0826 46.1489 51.3232 47.0018 49.2119 48.0173C50.4164 49.8316 51.3773 51.4157 52.5141 52.8508C52.7848 53.1893 53.4615 53.4466 53.9893 53.4466C54.1111 53.4466 54.2194 53.4331 54.3141 53.406C59.7546 51.7813 64.7485 49.2088 69.3363 45.8646C69.9048 45.4584 70.4055 44.5783 70.4597 43.8878C70.8927 38.1065 70.9333 32.2846 69.2416 26.72C67.753 21.8323 65.8988 17.0122 63.7199 12.3818C60.7425 6.0589 55.0584 3.32396 48.4541 2.14604C47.7909 2.06481 47.1413 1.90234 46.5729 1.90234ZM47.4391 37.0369C43.988 37.0369 40.9836 33.9906 40.97 30.4568C40.9565 26.9772 43.9745 23.8767 47.4932 23.7684C47.5473 23.7684 47.615 23.7684 47.6691 23.7684C51.1608 23.7684 54.1517 26.7741 54.2329 30.4026C54.3141 34.0176 51.3232 36.9692 47.5338 37.0369C47.4932 37.0369 47.4661 37.0369 47.4391 37.0369ZM24.6215 37.0369H24.608C21.211 37.0369 18.2743 34.0583 18.1931 30.5381C18.1119 27.0178 21.2922 23.7684 24.8109 23.7684C24.8245 23.7684 24.8245 23.7684 24.838 23.7684C28.3568 23.7819 31.3747 26.8012 31.4153 30.3485C31.4559 34.1666 28.5462 37.0369 24.6215 37.0369Z" fill="url(#paint1_linear_293_540)"/>
<path d="M69.2285 26.7467C68.8631 25.5282 68.4571 24.3096 68.0511 23.0911C67.212 20.6676 66.2917 18.2711 65.2902 15.9153C64.7895 14.7374 64.2617 13.5729 63.7203 12.4086C63.2737 11.4473 62.7459 10.5807 62.1775 9.78192C61.8121 9.25389 61.4196 8.75296 61.0001 8.29263C60.4723 7.71044 59.9039 7.1824 59.3219 6.68144C58.7264 6.19403 58.1039 5.74724 57.4408 5.34106C56.4528 4.73179 55.4107 4.21725 54.3145 3.77046C52.8529 3.18827 51.2965 2.7279 49.6725 2.38942C49.2665 2.30818 48.8605 2.22696 48.4409 2.14572C48.2108 2.1051 47.9673 2.05098 47.7372 2.01036C47.6425 1.99682 47.5342 1.96977 47.4394 1.95623C47.1552 1.91561 46.8846 1.875 46.6274 1.875C46.6139 1.875 46.5869 1.875 46.5733 1.875C46.4515 1.875 46.3297 1.88848 46.2214 1.90202C46.1944 1.90202 46.1673 1.91558 46.1538 1.91558C46.0049 1.94265 45.8695 1.98331 45.7342 2.03747C45.7207 2.03747 45.7207 2.0374 45.7072 2.05094C45.5718 2.11863 45.45 2.19987 45.3418 2.30819C45.3147 2.33526 45.3011 2.34887 45.2741 2.37595C45.1658 2.4978 45.0711 2.63319 44.9763 2.79566C44.9628 2.82274 44.9493 2.86337 44.9357 2.89045C44.841 3.08 44.7598 3.28306 44.7057 3.54031C44.7057 3.54031 44.7057 3.54032 44.7057 3.55386C44.6651 3.72987 44.611 3.89231 44.5433 4.02771C44.5162 4.08186 44.5027 4.10899 44.4756 4.16315C44.435 4.25792 44.3809 4.33915 44.3267 4.40685C44.2997 4.44747 44.2591 4.48804 44.232 4.52866C44.1779 4.58281 44.1237 4.6505 44.0696 4.69112C44.029 4.7182 43.9884 4.75883 43.9478 4.78591C43.8937 4.82652 43.826 4.86716 43.7583 4.89424C43.7177 4.92132 43.6636 4.93484 43.623 4.96192C43.5553 4.989 43.4876 5.01606 43.4064 5.0296C43.3523 5.04314 43.3117 5.05672 43.2576 5.07026C43.1764 5.0838 43.0952 5.0973 43.0004 5.11084C42.9463 5.11084 42.9057 5.12439 42.8516 5.12439C42.7433 5.13793 42.6351 5.13794 42.5133 5.13794C42.4727 5.13794 42.4456 5.13794 42.405 5.13794C42.2696 5.13794 42.1208 5.13793 41.9719 5.12439C41.9583 5.12439 41.9313 5.12439 41.9178 5.12439C41.9178 5.12439 41.9178 5.12439 41.9042 5.12439C39.9013 5.05669 37.8983 5.01605 35.8953 5.01605C35.8683 5.01605 35.8412 5.01605 35.8006 5.01605C35.7329 5.01605 35.6653 5.01605 35.6111 5.01605C33.8112 5.01605 32.0112 5.05671 30.2112 5.13794C30.2112 5.13794 30.2112 5.13794 30.1977 5.13794C30.1977 5.13794 30.1977 5.13794 30.1842 5.13794C30.0218 5.15148 29.8729 5.15148 29.724 5.13794C29.6564 5.13794 29.5887 5.13793 29.521 5.12439C29.4263 5.12439 29.3315 5.11084 29.2503 5.11084C29.1827 5.0973 29.1286 5.09735 29.0609 5.08381C28.9797 5.07027 28.8985 5.05668 28.8173 5.0296C28.7631 5.01606 28.6955 5.00255 28.6414 4.97548C28.5737 4.9484 28.506 4.92132 28.4383 4.89424C28.3842 4.86716 28.3301 4.85364 28.2895 4.82656C28.2218 4.78595 28.1676 4.74529 28.1 4.70467C28.0594 4.67759 28.0188 4.63697 27.9647 4.60989C27.9105 4.55573 27.8429 4.48803 27.7887 4.43387C27.7481 4.39325 27.721 4.35268 27.6804 4.31206C27.6263 4.23083 27.5722 4.14959 27.518 4.05481C27.491 4.01419 27.4639 3.97353 27.4369 3.91937C27.3557 3.77044 27.288 3.62154 27.2203 3.44553C27.1932 3.36429 27.1526 3.28306 27.0985 3.20183C27.085 3.17475 27.0579 3.14766 27.0444 3.10704C27.0173 3.05289 26.9767 2.99872 26.9361 2.93102C26.909 2.89041 26.882 2.8633 26.8549 2.82269C26.8143 2.76853 26.7737 2.71438 26.7331 2.66022C26.7061 2.6196 26.679 2.59258 26.6384 2.55197C26.5978 2.51135 26.5572 2.45714 26.5166 2.41652C26.4895 2.37591 26.4489 2.34882 26.4218 2.32174C26.3812 2.28112 26.3406 2.24055 26.3 2.19993C26.273 2.17285 26.2324 2.14578 26.2053 2.1187C26.1647 2.09162 26.1241 2.05099 26.0835 2.02391C26.0564 1.99683 26.0158 1.98324 25.9888 1.9697C25.9481 1.94262 25.9076 1.92911 25.8805 1.91558C25.8534 1.90204 25.8264 1.90202 25.7858 1.90202C25.7587 1.90202 25.7316 1.88847 25.7046 1.88847C25.691 1.88847 25.6775 1.88847 25.664 1.88847C25.285 1.94263 24.9196 1.98324 24.5407 2.05094C23.7963 2.15925 23.052 2.2947 22.3347 2.44363C21.6039 2.59256 20.8866 2.76858 20.1829 2.95813C19.4791 3.16122 18.7889 3.37785 18.1123 3.6351C17.4356 3.89234 16.7724 4.19016 16.1363 4.5151C15.5002 4.84005 14.8777 5.20562 14.2822 5.62534C12.7935 6.65433 11.4672 7.95411 10.344 9.6059C7.71845 13.4917 5.75609 17.5535 4.3892 21.7777C2.10203 28.7911 1.46596 36.2242 2.11557 43.9416C2.16971 44.5915 2.60278 45.4039 3.13059 45.783C4.29448 46.636 5.4719 47.4348 6.68992 48.1794C7.90794 48.9241 9.1395 49.6147 10.4117 50.2645C11.6703 50.9009 12.9695 51.4966 14.2822 52.0246C15.595 52.5527 16.9484 53.0401 18.3152 53.4598C18.4506 53.5004 18.6265 53.5139 18.8024 53.5275C18.816 53.5275 18.8295 53.5275 18.8566 53.5275C18.9648 53.5275 19.0867 53.5139 19.1949 53.5004C19.2085 53.5004 19.222 53.5004 19.2355 53.4869C19.3573 53.4734 19.4656 53.4328 19.5739 53.4057C19.6009 53.3921 19.628 53.3786 19.6551 53.3786C19.7633 53.3244 19.858 53.2702 19.8986 53.2026C20.7513 52.0517 21.5227 50.8332 22.3076 49.6011C22.646 49.0596 22.9979 48.5315 23.3497 47.9764C22.267 47.4348 21.2926 46.9474 20.3859 46.487C19.4791 46.0267 18.613 45.5934 17.7468 45.1602C17.8551 44.9706 17.9634 44.8082 18.0717 44.6728C18.1123 44.6322 18.1528 44.6051 18.1799 44.5645C18.2611 44.4832 18.3288 44.4019 18.41 44.3613C18.4641 44.3343 18.5047 44.3207 18.5588 44.2937C18.6265 44.253 18.6942 44.2124 18.7618 44.1989C18.816 44.1853 18.8701 44.1854 18.9242 44.1718C18.9919 44.1583 19.0461 44.1447 19.1137 44.1447C19.1949 44.1447 19.2626 44.1583 19.3438 44.1718C19.3844 44.1854 19.4385 44.1854 19.4791 44.1854C19.5603 44.1989 19.6551 44.2396 19.7363 44.2666C19.7769 44.2802 19.8174 44.2937 19.858 44.3072C19.9663 44.3478 20.0746 44.3885 20.1693 44.4291C20.1964 44.4426 20.2099 44.4426 20.237 44.4561C20.3588 44.5103 20.4941 44.5644 20.6159 44.6186C21.3061 44.8894 21.9963 45.1466 22.6866 45.4039C22.9031 45.4851 23.1196 45.5529 23.3226 45.6206C23.8234 45.7966 24.3106 45.959 24.8113 46.108C25.0549 46.1757 25.2986 46.2569 25.5422 46.3246C26.0564 46.4735 26.5707 46.6089 27.085 46.7443C27.288 46.7984 27.491 46.8526 27.694 46.8933C28.4113 47.0557 29.115 47.2181 29.8458 47.34C29.9541 47.3535 30.0759 47.3671 30.1842 47.3942C30.7932 47.489 31.4022 47.5838 32.0112 47.6515C32.2413 47.6785 32.4849 47.6921 32.7149 47.7191C33.2157 47.7598 33.73 47.8004 34.2442 47.8139C34.4878 47.8275 34.7314 47.8274 34.9751 47.841C35.1239 47.841 35.2728 47.8545 35.4352 47.8545C35.8006 47.8545 36.166 47.8275 36.5314 47.8139C36.775 47.8004 37.0186 47.8004 37.2622 47.7868C38.0201 47.7327 38.778 47.665 39.5359 47.5567C40.6185 47.3942 41.6877 47.1911 42.7433 46.9609C45.0981 46.4465 47.4395 45.783 49.7808 45.1466C50.6063 44.9165 51.4454 44.6863 52.2709 44.4697C52.501 44.402 52.7311 44.3343 52.9612 44.2666C53.1506 44.2125 53.3401 44.1854 53.5296 44.1718C53.5702 44.1718 53.5972 44.1718 53.6378 44.1718C53.7055 44.1718 53.7596 44.1853 53.8273 44.1989C53.8814 44.2124 53.922 44.2124 53.9762 44.226C54.0438 44.253 54.098 44.2937 54.1656 44.3343C54.2062 44.3614 54.2468 44.3749 54.2874 44.4155C54.3551 44.4697 54.4092 44.5509 54.4769 44.6321C54.504 44.6728 54.5446 44.6999 54.5716 44.754C54.6664 44.8894 54.7476 45.0654 54.8288 45.2685C53.4754 45.932 52.1491 46.5683 50.674 47.2859C50.1868 47.5296 49.6725 47.7733 49.1447 48.0305C49.7537 48.9377 50.295 49.7907 50.8228 50.5895C51.0935 50.9957 51.3506 51.3883 51.6213 51.7674C51.892 52.1465 52.1627 52.5121 52.4469 52.8776C52.5281 52.9724 52.6363 53.0672 52.7717 53.1349C52.8123 53.162 52.8529 53.1755 52.907 53.2026C53.0018 53.2567 53.0965 53.2973 53.2048 53.3379C53.2589 53.3515 53.313 53.365 53.3672 53.3921C53.4754 53.4192 53.5837 53.4463 53.6784 53.4598C53.7326 53.4733 53.7867 53.4734 53.8408 53.4734C53.8679 53.4734 53.895 53.4869 53.922 53.4869C54.0438 53.4869 54.1521 53.4733 54.2468 53.4463C55.6137 53.0401 56.94 52.5798 58.2392 52.0517C61.5008 50.752 64.5865 49.0866 67.5232 47.1234C68.1052 46.7308 68.6871 46.3246 69.2555 45.9048C69.3909 45.7965 69.5398 45.6747 69.6616 45.5258C69.9187 45.2279 70.1352 44.8488 70.257 44.4832C70.3247 44.2937 70.3653 44.1176 70.3788 43.9416C70.7578 38.8914 70.839 33.8007 69.7157 28.8724C69.6209 28.1548 69.445 27.4508 69.2285 26.7467ZM50.1868 36.4815C49.3747 36.82 48.4815 37.0231 47.5342 37.0366C47.2771 37.0366 47.0334 36.996 46.7898 36.9689C46.6004 36.9418 46.3974 36.9419 46.2079 36.9012C45.9778 36.8471 45.7613 36.7658 45.5448 36.6981C45.3688 36.644 45.1794 36.5898 45.0034 36.5221C44.7869 36.4273 44.5974 36.3055 44.4079 36.1836C44.2455 36.0888 44.0696 36.0076 43.9072 35.8993C43.7177 35.7639 43.5553 35.6014 43.3794 35.4525C43.2305 35.3307 43.0816 35.2223 42.9463 35.0869C42.7839 34.9245 42.6486 34.7213 42.4997 34.5453C42.3779 34.3964 42.2426 34.2611 42.1478 34.1121C42.0125 33.909 41.9042 33.6788 41.7824 33.4622C41.7012 33.2997 41.593 33.1644 41.5253 32.9883C41.417 32.7311 41.3494 32.4603 41.2682 32.1895C41.2275 32.0406 41.1599 31.9052 41.1328 31.7562C41.0381 31.3365 40.9975 30.9033 40.984 30.4565C40.984 30.4565 40.984 30.4565 40.984 30.4429C40.9704 28.1006 42.3373 25.9614 44.2997 24.77C45.2605 24.1742 46.3433 23.7951 47.5071 23.7681C47.7778 23.7545 48.0349 23.8087 48.2921 23.8357C48.4951 23.8493 48.6981 23.8628 48.8876 23.9034C49.1176 23.944 49.3341 24.0253 49.5507 24.1066C49.7402 24.1607 49.9296 24.2149 50.1056 24.2826C50.3221 24.3773 50.5116 24.4992 50.7146 24.6075C50.877 24.7023 51.0529 24.7835 51.2153 24.8919C51.4048 25.0273 51.5807 25.1897 51.7567 25.3386C51.9055 25.4604 52.0544 25.5688 52.1897 25.7042C52.3657 25.8802 52.501 26.0697 52.6499 26.2593C52.7717 26.4082 52.8935 26.5436 53.0018 26.6925C53.1506 26.8956 53.2589 27.1258 53.3807 27.3559C53.4619 27.5184 53.5702 27.6539 53.6378 27.8299C53.7596 28.0871 53.8273 28.3714 53.9085 28.6422C53.9491 28.7911 54.0168 28.9265 54.0438 29.0755C54.1386 29.5087 54.1927 29.9555 54.2062 30.4023C54.2874 33.1237 52.6228 35.4525 50.1868 36.4815ZM29.4398 25.7448C30.6443 26.9498 31.4022 28.5881 31.4157 30.3617C31.4157 30.8356 31.3751 31.296 31.2939 31.7428C31.2804 31.8104 31.2533 31.8645 31.2398 31.9322C31.1586 32.3113 31.0639 32.677 30.915 33.0155C30.8609 33.1373 30.7796 33.2591 30.7255 33.381C30.6037 33.6517 30.4684 33.909 30.306 34.1527C30.2248 34.2881 30.103 34.3964 30.0082 34.5183C29.8458 34.7349 29.6834 34.9515 29.4939 35.1411C29.3721 35.2629 29.2233 35.3578 29.0879 35.4661C28.8985 35.6285 28.709 35.8045 28.4925 35.9399C28.3436 36.0347 28.1677 36.1024 28.0053 36.1972C27.7887 36.319 27.5722 36.4544 27.3421 36.5492C27.1526 36.6169 26.9496 36.6575 26.7602 36.7117C26.5166 36.7794 26.2865 36.8741 26.0429 36.9147C25.8399 36.9553 25.6234 36.9554 25.4068 36.9689C25.1497 36.996 24.8926 37.0366 24.6219 37.0366C23.2821 37.0366 22.0234 36.5627 20.9678 35.7774C20.1423 35.1682 19.4656 34.3558 18.9784 33.4352C18.5182 32.5551 18.234 31.5803 18.207 30.5513V30.5377C18.207 30.3211 18.207 30.1044 18.234 29.9013C18.234 29.8607 18.2476 29.8202 18.2476 29.7795C18.2611 29.6035 18.2881 29.4275 18.3288 29.2515C18.3423 29.1702 18.3694 29.089 18.3829 29.0213C18.41 28.8859 18.4506 28.7505 18.4912 28.6286C18.5183 28.5474 18.5588 28.4662 18.5859 28.3714C18.6265 28.2495 18.6671 28.1278 18.7212 28.0194C18.7618 27.9247 18.8024 27.8434 18.8566 27.7486C18.9107 27.6403 18.9513 27.532 19.019 27.4237C19.0731 27.3289 19.1272 27.2477 19.1814 27.1529C19.2355 27.0581 19.2896 26.9498 19.3573 26.855C19.425 26.7602 19.4926 26.679 19.5603 26.5843C19.628 26.503 19.6821 26.4083 19.7498 26.327C19.831 26.2322 19.9122 26.151 19.9934 26.0562C20.0611 25.9885 20.1287 25.9072 20.1964 25.8395C20.2776 25.7583 20.3723 25.6771 20.4535 25.5958C20.5212 25.5281 20.6024 25.4605 20.6701 25.3928C20.7648 25.3116 20.8595 25.2438 20.9543 25.1761C21.0355 25.122 21.1032 25.0543 21.1844 25.0001C21.2791 24.9324 21.3874 24.8648 21.4821 24.8106C21.5633 24.7565 21.6445 24.7022 21.7257 24.6481C21.834 24.5939 21.9287 24.5398 22.037 24.4856C22.1317 24.445 22.2129 24.3909 22.3076 24.3503C22.4159 24.2961 22.5377 24.2555 22.646 24.2149C22.7407 24.1743 22.8219 24.1472 22.9166 24.1066C23.0384 24.0659 23.1467 24.0388 23.2685 24.0118C23.3633 23.9847 23.4444 23.9576 23.5392 23.9305C23.6474 23.9035 23.7693 23.8899 23.8911 23.8764C23.9858 23.8629 24.0941 23.8357 24.1888 23.8222C24.2971 23.8087 24.4189 23.8086 24.5271 23.8086C24.6354 23.8086 24.7437 23.7952 24.8519 23.7952C25.7316 23.7952 26.5842 23.9847 27.3557 24.3367C28.1271 24.6481 28.8308 25.1355 29.4398 25.7448Z" stroke="#26120F" stroke-width="3.75" stroke-miterlimit="10"/>
<defs>
<linearGradient id="paint0_linear_293_540" x1="36.3078" y1="-6.34687" x2="36.3078" y2="33.0845" gradientUnits="userSpaceOnUse">
<stop stop-color="#47221A"/>
<stop offset="1" stop-color="#47221A" stop-opacity="0"/>
</linearGradient>
<linearGradient id="paint1_linear_293_540" x1="36.3072" y1="-6.3469" x2="36.3072" y2="33.0845" gradientUnits="userSpaceOnUse">
<stop stop-color="#BB7D42"/>
<stop offset="1" stop-color="#BB7D42" stop-opacity="0"/>
</linearGradient>
</defs>
</svg>
