<svg width="73" height="73" viewBox="0 0 73 73" fill="none" xmlns="http://www.w3.org/2000/svg">
<path d="M69.3403 31.6885C68.5148 31.2281 67.4998 31.2687 66.7013 31.7697L36.5891 50.982C33.7877 52.7692 30.2148 52.7151 27.4675 50.8466L19.6586 45.5392C18.4677 44.7268 16.8572 45.0382 16.0587 46.2297C15.2602 47.4212 15.558 49.0324 16.7489 49.8312L24.5578 55.1386C29.0238 58.1714 34.8433 58.2661 39.3906 55.3552L65.5103 38.6883V42.0867C65.5103 44.2394 64.4276 46.2026 62.6141 47.367L36.5891 63.9663C33.7877 65.7534 30.2148 65.6992 27.4675 63.8308L8.34457 50.8331C7.55963 50.3051 7.09951 49.4115 7.09951 48.4637V38.7695V31.0792C7.09951 31.0115 7.09947 30.8354 7.31601 30.7136C7.53255 30.6053 7.68141 30.7001 7.73555 30.7407L24.5442 42.1814C26.8314 43.7385 29.484 44.5237 32.123 44.5237C34.6403 44.5237 37.1575 43.8197 39.377 42.398L62.4788 27.6538C64.766 26.1915 66.16 23.7003 66.2141 20.9789C66.2547 18.2575 64.942 15.7121 62.6818 14.1686L48.0385 4.2172C43.5725 1.18439 37.753 1.08957 33.2057 4.00052L6.38219 21.1143C3.58075 22.9014 1.90259 25.9478 1.90259 29.265V31.0656V38.756V48.4502C1.90259 51.1309 3.21539 53.6357 5.42136 55.125L24.5307 68.1228C26.8179 69.6798 29.4705 70.4651 32.1095 70.4651C34.6267 70.4651 37.144 69.7611 39.3635 68.3394L65.3886 51.7402C68.7043 49.6145 70.6801 46.0131 70.6801 42.0867V33.9631C70.6937 33.0153 70.1794 32.1488 69.3403 31.6885Z" fill="#7F3F2E"/>
<path d="M69.3403 31.6885C68.5148 31.2281 67.4998 31.2687 66.7013 31.7697L36.5891 50.982C33.7877 52.7692 30.2148 52.7151 27.4675 50.8466L19.6586 45.5392C18.4677 44.7268 16.8572 45.0382 16.0587 46.2297C15.2602 47.4212 15.558 49.0324 16.7489 49.8312L24.5578 55.1386C29.0238 58.1714 34.8433 58.2661 39.3906 55.3552L65.5103 38.6883V42.0867C65.5103 44.2394 64.4276 46.2026 62.6141 47.367L36.5891 63.9663C33.7877 65.7534 30.2148 65.6992 27.4675 63.8308L8.34457 50.8331C7.55963 50.3051 7.09951 49.4115 7.09951 48.4637V38.7695V31.0792C7.09951 31.0115 7.09947 30.8354 7.31601 30.7136C7.53255 30.6053 7.68141 30.7001 7.73555 30.7407L24.5442 42.1814C26.8314 43.7385 29.484 44.5237 32.123 44.5237C34.6403 44.5237 37.1575 43.8197 39.377 42.398L62.4788 27.6538C64.766 26.1915 66.16 23.7003 66.2141 20.9789C66.2547 18.2575 64.942 15.7121 62.6818 14.1686L48.0385 4.2172C43.5725 1.18439 37.753 1.08957 33.2057 4.00052L6.38219 21.1143C3.58075 22.9014 1.90259 25.9478 1.90259 29.265V31.0656V38.756V48.4502C1.90259 51.1309 3.21539 53.6357 5.42136 55.125L24.5307 68.1228C26.8179 69.6798 29.4705 70.4651 32.1095 70.4651C34.6267 70.4651 37.144 69.7611 39.3635 68.3394L65.3886 51.7402C68.7043 49.6145 70.6801 46.0131 70.6801 42.0867V33.9631C70.6937 33.0153 70.1794 32.1488 69.3403 31.6885Z" fill="url(#paint0_linear_293_551)"/>
<path d="M40.4724 4.36627C42.6783 4.36627 44.8167 5.02966 46.6572 6.27528L61.287 16.2267C62.8434 17.2963 63.7501 19.0429 63.723 20.9384C63.696 22.8204 62.7351 24.5398 61.1517 25.5553L38.0499 40.2996C36.277 41.4369 34.2334 42.0327 32.1357 42.0327C29.9298 42.0327 27.7915 41.3692 25.9509 40.1236L9.12869 28.6829C8.64149 28.3444 8.08661 28.1819 7.5182 28.1819C7.04452 28.1819 6.58438 28.3038 6.16484 28.5204C5.20396 29.0349 4.62199 29.9962 4.62199 31.0793V38.7697V48.4639C4.62199 50.2511 5.50165 51.9164 6.96327 52.9047L26.0862 65.9025C27.8862 67.1211 29.9839 67.771 32.1493 67.771C34.2064 67.771 36.2093 67.1888 37.9552 66.0786L63.9802 49.4793C66.5109 47.8546 68.0267 45.1061 68.0267 42.1004V38.702V34.1528L64.1967 36.6034L38.0769 53.2703C36.304 54.4076 34.2605 55.0033 32.1628 55.0033C29.9568 55.0033 27.8186 54.3399 25.978 53.0943L18.1691 47.7869C18.1285 47.7598 18.1149 47.6921 18.142 47.6379C18.1691 47.6108 18.1961 47.5973 18.2232 47.5973C18.2503 47.5973 18.2639 47.5973 18.2774 47.6109L26.0862 52.9183C27.8862 54.1368 29.9839 54.7867 32.1493 54.7867C34.2064 54.7867 36.2093 54.2045 37.9552 53.0943L68.0673 33.882C68.0809 33.8685 68.1079 33.8684 68.1214 33.8684C68.135 33.8684 68.1621 33.8685 68.1756 33.882C68.2027 33.8955 68.2297 33.9362 68.2297 33.9768V42.1004C68.2297 45.1738 66.6869 48.0035 64.0885 49.6553L38.0634 66.2545C36.2906 67.3918 34.247 67.9876 32.1493 67.9876C29.9433 67.9876 27.805 67.3242 25.9644 66.0786L6.84152 53.0807C5.32576 52.0518 4.41896 50.3323 4.41896 48.4774V38.7832V31.0929V29.2921C4.41896 26.828 5.66406 24.567 7.7347 23.2401L34.5582 6.12637C36.3176 4.96199 38.3747 4.36627 40.4724 4.36627ZM40.4724 1.875C37.9551 1.875 35.4379 2.57906 33.2184 4.00068L6.39489 21.1144C3.59344 22.9016 1.91528 25.948 1.91528 29.2651V31.0658V38.7561V48.4503C1.91528 51.1311 3.22801 53.6359 5.43398 55.1252L24.5434 68.1229C26.8305 69.6799 29.4832 70.4653 32.1222 70.4653C34.6394 70.4653 37.1567 69.7612 39.3762 68.3396L65.4012 51.7404C68.7169 49.6147 70.6928 46.0132 70.6928 42.0868V33.9632C70.6928 33.0155 70.1786 32.149 69.3395 31.6886C68.947 31.472 68.514 31.3637 68.0944 31.3637C67.6072 31.3637 67.12 31.4991 66.7004 31.7699L36.5883 50.9822C35.2214 51.8487 33.6786 52.282 32.1222 52.282C30.4982 52.282 28.8606 51.7946 27.4531 50.8468L19.6442 45.5393C19.1976 45.2415 18.6834 45.0926 18.1826 45.0926C17.3571 45.0926 16.5315 45.4852 16.0308 46.2299C15.2188 47.4213 15.53 49.0325 16.721 49.8314L24.5299 55.1388C26.8171 56.6958 29.4696 57.481 32.1087 57.481C34.6259 57.481 37.1431 56.777 39.3626 55.3553L65.4824 38.6884V42.0868C65.4824 44.2396 64.3997 46.2028 62.5863 47.3672L36.5612 63.9664C35.1943 64.8329 33.6515 65.2661 32.0951 65.2661C30.4711 65.2661 28.8335 64.7787 27.426 63.831L8.30308 50.8333C7.51814 50.3052 7.05802 49.4116 7.05802 48.4639V38.7697V31.0793C7.05802 31.0116 7.05807 30.8356 7.2746 30.7138C7.34227 30.6731 7.40987 30.6596 7.46401 30.6596C7.57228 30.6596 7.65354 30.7138 7.69414 30.7409L24.5028 42.1816C26.79 43.7386 29.4425 44.5239 32.0816 44.5239C34.5988 44.5239 37.1161 43.8198 39.3356 42.3982L62.4373 27.6539C64.7245 26.1917 66.1185 23.7005 66.1726 20.9791C66.2132 18.2576 64.9005 15.7122 62.6404 14.1687L47.997 4.21736C45.764 2.66034 43.1114 1.875 40.4724 1.875Z" fill="url(#paint1_linear_293_551)"/>
<path d="M70.5984 33.2727C70.409 32.6093 69.9624 32.0271 69.3398 31.6886C69.1368 31.5803 68.9203 31.4991 68.7037 31.4449C68.636 31.4314 68.5549 31.4314 68.4872 31.4178C68.3519 31.3907 68.2301 31.3637 68.0948 31.3637C68.0812 31.3637 68.0677 31.3637 68.0541 31.3637C67.8917 31.3637 67.7429 31.4043 67.594 31.4314C67.5128 31.4449 67.4316 31.445 67.3639 31.472C67.1338 31.5397 66.9173 31.6345 66.7143 31.7699C66.7143 31.7699 66.7143 31.7699 66.7008 31.7699L51.6515 41.3693L36.6022 50.9686C36.2503 51.1852 35.8984 51.3748 35.533 51.5508C35.4112 51.605 35.2894 51.6321 35.1676 51.6862C34.924 51.781 34.6669 51.8893 34.4097 51.957C34.2609 51.9976 34.0984 52.0247 33.9495 52.0517C33.7195 52.1059 33.4895 52.1601 33.2459 52.2007C33.0835 52.2278 32.9211 52.2278 32.7451 52.2413C32.5151 52.2549 32.2985 52.282 32.0684 52.282C31.8384 52.282 31.6083 52.2548 31.3918 52.2278C31.2158 52.2142 31.0399 52.2143 30.8775 52.1872C30.6474 52.1466 30.4173 52.0924 30.1737 52.0247C30.0113 51.9841 29.8489 51.957 29.6865 51.9164C29.4294 51.8352 29.1857 51.7268 28.9421 51.632C28.8068 51.5779 28.6715 51.5373 28.5361 51.4696C28.1707 51.2936 27.8324 51.0905 27.4941 50.8738C27.4806 50.8603 27.467 50.8603 27.467 50.8603L23.5693 48.2066L19.6717 45.5529C19.4687 45.4175 19.2522 45.3228 19.0356 45.2551C18.9815 45.2415 18.9274 45.2144 18.8732 45.2009C18.6567 45.1467 18.4401 45.1061 18.21 45.1061C18.1965 45.1061 18.1965 45.1061 18.183 45.1061C18.0071 45.1061 17.8176 45.1332 17.6416 45.1738C17.5875 45.1874 17.5198 45.2009 17.4657 45.228C17.3439 45.2686 17.2221 45.3092 17.1003 45.3633C17.0461 45.3904 16.9785 45.4175 16.9244 45.4581C16.8026 45.5258 16.6943 45.6071 16.5995 45.6883C16.5454 45.7289 16.5048 45.756 16.4507 45.7966C16.3018 45.932 16.1665 46.0809 16.0582 46.2434C15.8552 46.5413 15.7198 46.8662 15.6657 47.1912C15.571 47.6921 15.6116 48.2066 15.8011 48.6669C15.9906 49.1273 16.3018 49.547 16.7484 49.8448L24.5573 55.1523C25.1257 55.5314 25.7077 55.8699 26.3167 56.1678C26.5062 56.2625 26.7091 56.3167 26.9121 56.3979C27.3316 56.5739 27.7377 56.7499 28.1708 56.8853C28.4144 56.9665 28.6715 57.0072 28.9287 57.0613C29.3211 57.1561 29.7 57.2644 30.0925 57.3186C30.3632 57.3592 30.6474 57.3592 30.918 57.3862C31.297 57.4133 31.6624 57.4675 32.0414 57.4675C32.0684 57.4675 32.109 57.481 32.1361 57.481C32.4609 57.481 32.7992 57.4404 33.124 57.4134C33.3947 57.3863 33.6789 57.3863 33.9495 57.3592C34.3285 57.3051 34.7075 57.2102 35.0864 57.129C35.33 57.0748 35.5871 57.0342 35.8307 56.9665C36.2503 56.8447 36.6562 56.6823 37.0622 56.5198C37.2653 56.4386 37.4683 56.3844 37.6577 56.3031C38.2532 56.0323 38.8352 55.7209 39.3901 55.3689L65.5098 38.702V42.1004C65.5098 44.2531 64.4271 46.2164 62.6136 47.3807L36.5886 63.9799C36.2367 64.1965 35.8849 64.3861 35.5195 64.5621C35.3977 64.6162 35.2623 64.6569 35.1405 64.6975C34.8969 64.7923 34.6533 64.9006 34.3962 64.9683C34.2473 65.0089 34.0849 65.036 33.9225 65.0631C33.6925 65.1173 33.4624 65.1714 33.2323 65.1985C33.0699 65.2255 32.894 65.2255 32.7316 65.239C32.515 65.2526 32.285 65.2797 32.0684 65.2797C31.8384 65.2797 31.6083 65.2526 31.3782 65.2256C31.2023 65.212 31.0399 65.212 30.8639 65.1849C30.6203 65.1443 30.3902 65.0766 30.1466 65.0224C29.9842 64.9818 29.8354 64.9547 29.673 64.9141C29.4158 64.8329 29.1587 64.7246 28.9151 64.6163C28.7933 64.5621 28.6579 64.5215 28.5361 64.4674C28.1707 64.2914 27.8189 64.0883 27.4806 63.8581C27.467 63.8445 27.4535 63.8445 27.4535 63.8445L8.33053 50.8468C7.93806 50.576 7.6268 50.224 7.41026 49.8178C7.30199 49.6147 7.2208 49.398 7.16667 49.1679C7.11253 48.9377 7.08547 48.7076 7.08547 48.4639V38.7697V31.0793C7.08547 31.0658 7.08547 31.0387 7.08547 31.0117C7.099 30.9304 7.13957 30.8085 7.30197 30.7138C7.36964 30.6731 7.42378 30.6732 7.47791 30.6596C7.49145 30.6596 7.50502 30.6596 7.51855 30.6596C7.55915 30.6596 7.58623 30.6732 7.6133 30.6732C7.62683 30.6732 7.64031 30.6867 7.64031 30.6867C7.66738 30.7003 7.69451 30.7138 7.70804 30.7273L24.5167 42.1681C26.2355 43.3324 28.1572 44.0636 30.1196 44.3614C30.7692 44.4562 31.4323 44.5103 32.0955 44.5103C32.7315 44.5103 33.3541 44.4697 33.9766 44.375C35.5601 44.1448 37.1164 43.6033 38.5645 42.8044C38.8217 42.6555 39.0923 42.5337 39.3494 42.3847L45.4937 38.4718L62.4512 27.6539C62.7354 27.4779 63.0061 27.2748 63.2633 27.0582C63.5204 26.8416 63.764 26.6114 63.9941 26.3812C64.9008 25.4199 65.5505 24.242 65.9023 22.9693C66.0783 22.3329 66.173 21.6696 66.1865 20.9791C66.1865 20.6406 66.173 20.3021 66.1459 19.9636C65.9294 17.9598 64.982 16.132 63.4662 14.7916C63.2091 14.5749 62.952 14.3583 62.6678 14.1687L48.0245 4.21736C47.4561 3.83826 46.8741 3.49978 46.2651 3.20191C46.0621 3.10714 45.8591 3.03937 45.6426 2.95813C45.2366 2.78212 44.8306 2.60613 44.411 2.47073C44.1674 2.3895 43.9103 2.34887 43.6532 2.29472C43.2742 2.19994 42.8817 2.09162 42.4892 2.03747C42.2185 1.99685 41.9344 1.99686 41.6637 1.96979C41.2848 1.92917 40.9193 1.88855 40.5404 1.88855C40.5133 1.88855 40.4727 1.875 40.4456 1.875C40.1208 1.875 39.7825 1.9156 39.4577 1.94268C39.187 1.96976 38.9164 1.96981 38.6322 1.99689C38.2532 2.05105 37.8743 2.1458 37.5089 2.22704C37.2517 2.28119 37.0081 2.3218 36.751 2.3895C36.345 2.51136 35.939 2.67384 35.533 2.82277C35.33 2.90401 35.1135 2.95814 34.924 3.05291C34.3421 3.31016 33.7872 3.62163 33.2323 3.96011C33.2188 3.97365 33.1917 3.97359 33.1781 3.98713L16.5183 14.6156L6.35469 21.1009C6.00281 21.3175 5.67794 21.5612 5.35313 21.832C4.40579 22.6172 3.63437 23.5515 3.06596 24.6076C2.29455 26.0021 1.875 27.5998 1.875 29.2651V31.0658V38.7561V48.4503C1.875 48.7888 1.90212 49.1137 1.92919 49.4522C2.05099 50.4406 2.34868 51.3748 2.80882 52.2413C3.10656 52.81 3.48551 53.3515 3.91858 53.8389C4.35165 54.3264 4.85243 54.7597 5.39377 55.1388L14.9485 61.6376L24.5032 68.1365C25.4911 68.7999 26.5467 69.3009 27.6294 69.68C28.4414 69.9643 29.267 70.1944 30.1061 70.3298C30.7557 70.4246 31.4188 70.4788 32.0819 70.4788C33.3405 70.4788 34.5992 70.3028 35.8172 69.9508C37.0352 69.5988 38.2262 69.0707 39.336 68.3532L65.361 51.7539C68.6767 49.6282 70.6525 46.0268 70.6525 42.1004V33.9768C70.6932 33.7331 70.6526 33.5029 70.5984 33.2727Z" stroke="#26120F" stroke-width="3.75" stroke-miterlimit="10"/>
<defs>
<linearGradient id="paint0_linear_293_551" x1="36.3004" y1="0.628033" x2="36.3004" y2="40.0594" gradientUnits="userSpaceOnUse">
<stop stop-color="#47221A"/>
<stop offset="1" stop-color="#47221A" stop-opacity="0"/>
</linearGradient>
<linearGradient id="paint1_linear_293_551" x1="36.2996" y1="0.628162" x2="36.2996" y2="40.0596" gradientUnits="userSpaceOnUse">
<stop stop-color="#BB7D42"/>
<stop offset="1" stop-color="#BB7D42" stop-opacity="0"/>
</linearGradient>
</defs>
</svg>
