<svg width="78" height="69" viewBox="0 0 78 69" fill="none" xmlns="http://www.w3.org/2000/svg">
<path d="M58.9523 1.91559C62.5928 1.91559 66.2333 1.91559 69.8603 1.91559C69.752 2.13222 69.6844 2.37589 69.522 2.5519C64.3657 8.42797 59.1958 14.3041 54.026 20.1801C51.3599 23.2129 48.7073 26.2457 46.0277 29.2921C46.7585 30.2669 47.4217 31.1605 48.0848 32.0406C56.7598 43.5219 65.4213 54.9897 74.0963 66.4711C66.7205 66.4711 59.3447 66.4711 51.9689 66.4711C48.8156 62.301 45.6758 58.1173 42.5089 53.9472C39.9917 50.6301 37.4474 47.3265 34.7948 43.874C28.1228 51.4831 21.559 58.9838 14.9952 66.4711C11.3547 66.4711 7.71419 66.4711 4.0872 66.4711C12.5592 56.7228 21.0312 46.9745 29.5303 37.1991C29.3543 36.9283 29.2325 36.7117 29.0837 36.5221C22.371 27.7351 15.6719 18.948 8.94574 10.1745C6.95631 7.58854 4.89922 5.05671 2.86918 2.49777C2.67971 1.56356 3.39697 1.90204 3.77591 1.90204C10.9487 1.8885 18.1215 1.88849 25.2943 1.88849C28.1092 5.63888 30.9242 9.38926 33.7392 13.1261C36.067 16.2266 38.4218 19.3136 40.9526 22.6578C41.2774 22.1974 41.4804 21.859 41.7376 21.5611C45.6082 17.1743 49.5058 12.8147 53.3629 8.41445C55.2711 6.28878 57.0982 4.08189 58.9523 1.91559ZM61.2394 60.0128C60.9552 59.5525 60.7657 59.2004 60.5357 58.9026C47.9224 42.2492 35.3227 25.5958 22.6958 8.95598C22.4387 8.61749 22.0598 8.11653 21.7214 8.10299C19.732 8.02176 17.7425 8.06242 15.496 8.06242C16.105 8.88832 16.5245 9.45696 16.9441 9.99853C28.6641 25.298 40.3977 40.5838 52.0907 55.9104C55.3523 60.1888 55.3117 60.2159 60.6981 60.094C60.8063 60.0805 60.9011 60.0534 61.2394 60.0128Z" fill="#7F3F2E"/>
<path d="M58.9523 1.91559C62.5928 1.91559 66.2333 1.91559 69.8603 1.91559C69.752 2.13222 69.6844 2.37589 69.522 2.5519C64.3657 8.42797 59.1958 14.3041 54.026 20.1801C51.3599 23.2129 48.7073 26.2457 46.0277 29.2921C46.7585 30.2669 47.4217 31.1605 48.0848 32.0406C56.7598 43.5219 65.4213 54.9897 74.0963 66.4711C66.7205 66.4711 59.3447 66.4711 51.9689 66.4711C48.8156 62.301 45.6758 58.1173 42.5089 53.9472C39.9917 50.6301 37.4474 47.3265 34.7948 43.874C28.1228 51.4831 21.559 58.9838 14.9952 66.4711C11.3547 66.4711 7.71419 66.4711 4.0872 66.4711C12.5592 56.7228 21.0312 46.9745 29.5303 37.1991C29.3543 36.9283 29.2325 36.7117 29.0837 36.5221C22.371 27.7351 15.6719 18.948 8.94574 10.1745C6.95631 7.58854 4.89922 5.05671 2.86918 2.49777C2.67971 1.56356 3.39697 1.90204 3.77591 1.90204C10.9487 1.8885 18.1215 1.88849 25.2943 1.88849C28.1092 5.63888 30.9242 9.38926 33.7392 13.1261C36.067 16.2266 38.4218 19.3136 40.9526 22.6578C41.2774 22.1974 41.4804 21.859 41.7376 21.5611C45.6082 17.1743 49.5058 12.8147 53.3629 8.41445C55.2711 6.28878 57.0982 4.08189 58.9523 1.91559ZM61.2394 60.0128C60.9552 59.5525 60.7657 59.2004 60.5357 58.9026C47.9224 42.2492 35.3227 25.5958 22.6958 8.95598C22.4387 8.61749 22.0598 8.11653 21.7214 8.10299C19.732 8.02176 17.7425 8.06242 15.496 8.06242C16.105 8.88832 16.5245 9.45696 16.9441 9.99853C28.6641 25.298 40.3977 40.5838 52.0907 55.9104C55.3523 60.1888 55.3117 60.2159 60.6981 60.094C60.8063 60.0805 60.9011 60.0534 61.2394 60.0128Z" fill="url(#paint0_linear_293_529)"/>
<path d="M17.6613 4.40795H21.4913H24.0762L25.8897 6.81799C27.8521 9.43108 29.8144 12.0441 31.7768 14.6572C33.3738 16.7829 34.9843 18.9086 36.6624 21.102C37.4203 22.1039 38.2052 23.1328 39.0037 24.1889L41.0608 26.8968L43.0232 24.1212C43.145 23.9452 43.2533 23.7827 43.348 23.6338C43.4698 23.4578 43.5781 23.2953 43.6458 23.2276C45.1344 21.5352 46.6366 19.8428 48.1389 18.164C50.4802 15.5238 52.9162 12.7888 55.2846 10.0809C56.5973 8.5916 57.8966 7.0481 59.1552 5.57231C59.48 5.17967 59.8048 4.80059 60.1431 4.40795H64.6228C62.0649 7.33244 59.4935 10.2434 56.9357 13.1679L52.2125 18.543C50.399 20.601 48.599 22.659 46.7855 24.7305L44.2141 27.655L42.8878 29.1713L44.0923 30.7961L44.769 31.7167C45.2427 32.3531 45.7028 32.9624 46.1494 33.5716C52.9433 42.5617 59.7371 51.5655 66.531 60.5556L69.1294 64.0081H53.2545C52.5508 63.0874 51.8606 62.1532 51.1569 61.2325C48.9915 58.3622 46.7449 55.3835 44.5254 52.4726C42.7796 50.1709 41.0608 47.9369 39.2338 45.554C38.4353 44.5115 37.6233 43.4554 36.7977 42.3857L34.9436 39.9758L32.9407 42.2639L13.8854 64.0081H9.56822L20.7334 51.1728L31.4249 38.8656L32.67 37.4439L31.6144 35.8463C31.5603 35.7651 31.5197 35.6973 31.4791 35.6296C31.3708 35.4536 31.2355 35.2505 31.0731 35.0339L26.3769 28.8871C21.3154 22.2663 16.0914 15.4155 10.9351 8.68642C9.83891 7.25125 8.70208 5.81605 7.57879 4.4215C10.9351 4.40796 14.305 4.40795 17.6613 4.40795ZM58.7086 62.6135C59.2905 62.6135 59.9266 62.6 60.7657 62.5729C61.0093 62.5729 61.1988 62.5323 61.3612 62.5052C61.4288 62.4917 61.51 62.4781 61.6183 62.4646L65.3671 61.896L63.3506 58.6736C63.2559 58.5382 63.1882 58.4028 63.107 58.2809C62.931 57.983 62.7551 57.6852 62.5115 57.3738C52.0907 43.6043 38.3676 25.4751 24.6717 7.42719C24.2386 6.85854 23.3319 5.65357 21.8026 5.59942C20.6658 5.5588 19.556 5.54529 18.7169 5.54529C18.2026 5.54529 17.6884 5.54529 17.1606 5.54529C16.6192 5.54529 16.0508 5.54529 15.4824 5.54529H10.5156L13.4794 9.52585C13.6824 9.81018 13.8719 10.0539 14.0478 10.2841C14.3862 10.7444 14.6704 11.1234 14.9546 11.489C18.4057 15.9976 21.8567 20.5063 25.3213 25.0148C33.455 35.6297 41.8593 46.5965 50.1148 57.4009L50.2366 57.5634C53.038 61.2461 54.0936 62.6135 58.7086 62.6135ZM3.22098 1.86255C2.96384 1.86255 2.77437 1.97092 2.88264 2.51249C4.91268 5.07143 6.96981 7.60326 8.95924 10.1893C15.6854 18.9628 22.3845 27.7497 29.0972 36.5367C29.246 36.7263 29.3678 36.9429 29.5438 37.2137C21.0447 46.9891 12.5727 56.7375 4.1007 66.4858C7.74122 66.4858 11.3817 66.4858 15.0087 66.4858C21.5725 58.9986 28.1363 51.4978 34.8083 43.8887C37.4609 47.3412 40.0052 50.6448 42.5224 53.9619C45.6893 58.132 48.8291 62.3157 51.9824 66.4858C59.3582 66.4858 66.734 66.4858 74.1098 66.4858C65.4348 55.0045 56.7733 43.5366 48.0983 32.0552C47.4351 31.1752 46.772 30.2816 46.0412 29.3068C48.7208 26.2469 51.3734 23.2141 54.0395 20.1813C59.2093 14.3052 64.3791 8.42914 69.5354 2.55307C69.6843 2.37706 69.7655 2.13339 69.8737 1.91676C66.2332 1.91676 62.5927 1.91676 58.9657 1.91676C57.1116 4.09659 55.2846 6.28989 53.3899 8.44264C49.5328 12.8429 45.6352 17.2026 41.7646 21.5894C41.5074 21.8872 41.3044 22.2257 40.9796 22.686C38.4489 19.3418 36.094 16.2549 33.7662 13.1544C30.9513 9.41753 28.1363 5.66715 25.3213 1.91676C22.777 1.91676 20.2192 1.91676 17.6749 1.91676C13.0464 1.91676 8.43143 1.91669 3.80296 1.93023C3.62702 1.91669 3.41045 1.86255 3.22098 1.86255ZM58.7086 60.1223C55.271 60.1223 54.9057 59.5807 52.1042 55.9115C40.3977 40.5985 28.6776 25.2991 16.9576 9.9997C16.538 9.44459 16.1185 8.87594 15.5095 8.06358C16.6463 8.06358 17.7154 8.05003 18.744 8.05003C19.759 8.05003 20.747 8.06354 21.7214 8.10416C22.0597 8.1177 22.4387 8.60512 22.6958 8.95714C35.3226 25.597 47.9223 42.2504 60.5356 58.9037C60.7657 59.2151 60.9552 59.5536 61.2394 60.014C60.901 60.0681 60.8063 60.0952 60.698 60.0952C59.9401 60.1087 59.277 60.1223 58.7086 60.1223Z" fill="url(#paint1_linear_293_529)"/>
<path d="M48.0977 32.0541C47.7593 31.6073 47.4345 31.1741 47.0962 30.7137C46.7578 30.2534 46.406 29.7931 46.0406 29.3057C48.7202 26.2458 51.3728 23.213 54.0389 20.1802C59.2087 14.3041 64.3785 8.42803 69.5348 2.55197C69.6701 2.40303 69.7378 2.19992 69.819 2.02391C69.8326 1.98329 69.8461 1.95628 69.8596 1.91566C66.2191 1.91566 62.5786 1.91566 58.9516 1.91566C58.0178 2.9988 57.0975 4.09547 56.1772 5.19215C55.2569 6.28884 54.3231 7.37193 53.3757 8.44154C49.5187 12.8418 45.621 17.2015 41.7504 21.5883C41.4933 21.8861 41.2903 22.2246 40.9655 22.6849C40.3294 21.8455 39.7069 21.0331 39.0978 20.2208C37.8663 18.6096 36.6889 17.039 35.5115 15.482C34.9295 14.7103 34.334 13.9386 33.7521 13.1533C30.9371 9.41643 28.1221 5.66605 25.3071 1.91566C25.253 1.91566 25.2124 1.91566 25.1583 1.91566C22.6546 1.91566 20.1644 1.91566 17.6607 1.91566C13.127 1.91566 8.59323 1.91559 4.05949 1.92913C3.96475 1.92913 3.87 1.92913 3.7888 1.92913C3.7076 1.92913 3.61285 1.91564 3.51811 1.90211C3.42338 1.88857 3.3422 1.875 3.24747 1.875C3.23393 1.875 3.23391 1.875 3.22037 1.875C3.20684 1.875 3.19332 1.875 3.19332 1.875C3.15272 1.875 3.12567 1.88855 3.08507 1.88855C3.058 1.88855 3.04446 1.90212 3.03092 1.91566C3.00386 1.9292 2.97679 1.95625 2.94973 1.96979C2.93619 1.98332 2.92266 1.99683 2.90913 2.02391C2.89559 2.05099 2.88206 2.10519 2.86853 2.1458C2.86853 2.17288 2.85498 2.1864 2.85498 2.21348C2.85498 2.29472 2.85497 2.40301 2.88203 2.52486C4.91207 5.08379 6.9692 7.61571 8.95863 10.2017C15.6848 18.9752 22.3839 27.7622 29.0966 36.5492C29.1372 36.6033 29.1642 36.6576 29.2048 36.6982C29.2725 36.8065 29.3537 36.9148 29.4349 37.0367C29.4755 37.1044 29.5026 37.1585 29.5567 37.2262C25.3072 42.1139 21.0711 46.988 16.8351 51.8622C12.5991 56.7363 8.3496 61.624 4.11359 66.4982C7.75412 66.4982 11.3946 66.4982 15.0216 66.4982C21.5854 59.0109 28.1492 51.5101 34.8212 43.901C36.7159 46.3787 38.5565 48.7753 40.3836 51.1582C41.1008 52.1059 41.8316 53.0401 42.5489 53.9878C45.7157 58.158 48.8556 62.3416 52.0089 66.5117C59.3847 66.5117 66.7605 66.5117 74.1363 66.5117C65.4342 55.0033 56.7727 43.5219 48.0977 32.0541ZM61.2388 59.9993C61.0628 60.0264 60.9546 60.04 60.8869 60.0535C60.8057 60.0671 60.7515 60.067 60.7109 60.0805C60.3455 60.0941 60.0207 60.0941 59.7095 60.1077C59.6283 60.1077 59.5606 60.1077 59.4794 60.1077C59.2493 60.1077 59.0328 60.1077 58.8298 60.1077C58.7621 60.1077 58.6944 60.1077 58.6268 60.1077C57.8554 60.1077 57.2328 60.067 56.7185 59.9722C56.6779 59.9587 56.6374 59.9587 56.5832 59.9452C56.3396 59.891 56.1231 59.8369 55.9065 59.7556C55.8659 59.7421 55.8253 59.7286 55.7847 59.7015C55.5817 59.6067 55.3787 59.5119 55.1893 59.3766C55.1622 59.363 55.1486 59.3359 55.1216 59.3223C54.9321 59.187 54.7562 59.0381 54.5667 58.8621C54.5396 58.835 54.5261 58.8214 54.499 58.8078C54.3096 58.6183 54.1066 58.4017 53.89 58.158C53.8494 58.1038 53.8088 58.0632 53.7682 58.0091C53.5517 57.7518 53.3351 57.481 53.0915 57.1561C53.0374 57.0884 52.9833 57.0206 52.9291 56.9394C52.672 56.6145 52.4149 56.276 52.1171 55.8834C40.4106 40.5704 28.6905 25.2709 16.9705 9.97149C16.7539 9.7007 16.551 9.41644 16.3209 9.10504C16.0908 8.79363 15.8336 8.44156 15.5224 8.03538C15.9419 8.03538 16.3344 8.03538 16.7404 8.03538C16.9434 8.03538 17.16 8.03538 17.363 8.03538C17.8366 8.03538 18.2968 8.03538 18.7569 8.03538C18.7704 8.03538 18.7704 8.03538 18.784 8.03538C19.7854 8.03538 20.7734 8.04897 21.7478 8.08959C21.7478 8.08959 21.7478 8.08959 21.7614 8.08959C22.0591 8.10313 22.3704 8.46862 22.614 8.78002C22.6546 8.83418 22.6952 8.8884 22.7358 8.92902C35.3626 25.5688 47.9623 42.2222 60.5756 58.8755C60.6974 59.0245 60.7921 59.187 60.9139 59.3766C60.9816 59.5796 61.1034 59.7691 61.2388 59.9993Z" stroke="#26120F" stroke-width="3.75" stroke-miterlimit="10"/>
<defs>
<linearGradient id="paint0_linear_293_529" x1="38.4795" y1="0.100092" x2="38.4795" y2="39.5315" gradientUnits="userSpaceOnUse">
<stop stop-color="#47221A"/>
<stop offset="1" stop-color="#47221A" stop-opacity="0"/>
</linearGradient>
<linearGradient id="paint1_linear_293_529" x1="38.4794" y1="0.101216" x2="38.4794" y2="39.5326" gradientUnits="userSpaceOnUse">
<stop stop-color="#BB7D42"/>
<stop offset="1" stop-color="#BB7D42" stop-opacity="0"/>
</linearGradient>
</defs>
</svg>
